<svg width="24" height="24" viewBox="0 0 24 24" fill="none" xmlns="http://www.w3.org/2000/svg">
<g clip-path="url(#clip0_216_21)">
<path d="M7.91174 8.96606C7.91174 8.96606 7.27814 5.99006 6.18374 5.01087C5.14694 4.07007 4.83974 3.57087 4.87814 2.93727V2.74527C5.14694 2.28447 5.93414 2.01567 7.75814 2.49567C9.71654 3.01407 10.9453 4.26206 11.6749 5.35646C12.4045 6.45086 12.0973 7.66047 12.0973 7.66047L9.96614 9.10046L7.91174 8.96606Z" fill="#D8CEA4"/>
<path d="M16.3983 9.92578C16.3983 9.92578 20.2575 9.92578 22.0623 11.9802C22.6191 12.6138 22.8879 13.7658 22.4655 14.1498C22.0431 14.5338 21.1023 14.4378 20.2191 14.0154C19.2207 13.5546 16.8783 13.9002 16.2255 14.3994C15.5727 14.8986 13.6335 14.6682 13.6335 14.6682L11.6367 13.2666L13.1535 10.1946L16.3983 9.92578Z" fill="#C9BF93"/>
<path d="M8.15851 8.42976C8.15851 8.42976 7.52491 5.51136 6.18091 4.60896C5.00971 3.82176 4.72171 3.03456 4.95211 2.51616C5.18251 1.99776 5.79691 1.57536 7.75531 2.09376C9.71371 2.61216 10.9425 3.87936 11.6913 4.97376C12.4401 6.06816 12.1137 7.27776 12.1137 7.27776L9.98251 8.71776L8.15851 8.42976Z" fill="#EAE3C5"/>
<path d="M16.3983 9.59961C16.3983 9.59961 20.2575 9.59961 22.0623 11.654C22.6191 12.2876 22.8879 13.4396 22.4655 13.8236C22.0431 14.2076 21.1023 14.1116 20.2191 13.6892C19.2207 13.2284 16.8783 13.574 16.2255 14.0732C15.5727 14.5724 13.6335 14.3612 13.6335 14.3612L11.6367 12.9596L13.1535 9.88761L16.3983 9.59961Z" fill="#D3CBA7"/>
<path d="M23.7902 3.03361C24.5582 4.56961 22.3118 6.12481 20.7374 7.12321C19.4126 7.94881 17.1662 9.27361 14.9006 11.6544C13.211 13.4208 11.8862 15.7056 10.9454 17.7984C10.043 19.7376 8.16139 21.504 6.64459 21.408C4.41739 21.2544 3.16939 13.5936 9.56299 6.79681C13.883 2.18881 22.331 0.614405 23.7902 3.03361V3.03361Z" fill="#F9F4D9"/>
<mask id="mask0_216_21" style="mask-type:luminance" maskUnits="userSpaceOnUse" x="4" y="1" width="20" height="21">
<path d="M23.7902 3.03361C24.5582 4.56961 22.3118 6.12481 20.7374 7.12321C19.4126 7.94881 17.1662 9.27361 14.9006 11.6544C13.211 13.4208 11.8862 15.7056 10.9454 17.7984C10.043 19.7376 8.16139 21.504 6.64459 21.408C4.41739 21.2544 3.16939 13.5936 9.56299 6.79681C13.883 2.18881 22.331 0.614405 23.7902 3.03361V3.03361Z" fill="white"/>
</mask>
<g mask="url(#mask0_216_21)">
<path d="M24.0962 1.18945C24.0962 1.18945 22.8674 1.47745 23.2898 2.51425C23.9042 4.03105 20.0066 5.06785 16.4546 7.33345C13.3058 9.34945 10.3874 13.0935 8.87062 16.2615C8.50582 17.0103 8.27542 17.5671 8.33302 18.4119C8.39062 19.2567 8.87062 20.1015 9.65782 20.3895C10.5794 20.7351 11.5586 20.2551 12.4034 19.7559C16.4546 17.3751 20.1026 14.3223 23.1554 10.7319C23.9426 9.81025 24.7106 8.83105 25.1522 7.69825C25.997 5.56705 25.5746 2.97505 24.0962 1.18945Z" fill="#DDD6BF"/>
</g>
<path d="M10.4622 15.8981C10.6542 15.4181 10.923 14.8421 11.2302 14.2469C11.1726 13.0373 11.115 11.8277 10.3662 11.2325L5.8158 10.3301C2.4558 16.7237 4.1838 22.4069 6.3726 22.5605C8.5038 21.1397 9.6558 17.7605 10.4622 15.8981Z" fill="url(#paint0_linear_216_21)"/>
<path d="M10.9827 14.7263C10.6563 15.3983 10.6755 15.3791 10.4451 15.8975C9.65787 17.7599 8.50587 21.1391 6.35547 22.5791C8.25627 22.6943 10.6179 20.5823 11.7507 18.2591C12.5379 16.6079 13.2099 15.3023 14.3811 13.6895C14.3811 13.6895 12.0387 13.7471 11.1747 14.3231C11.1939 14.3231 11.0403 14.6111 10.9827 14.7263Z" fill="url(#paint1_linear_216_21)"/>
<path d="M7.16466 22.3801C7.2066 22.129 6.84211 21.859 6.35054 21.7768C5.85897 21.6947 5.42648 21.8316 5.38454 22.0826C5.34259 22.3336 5.70709 22.6037 6.19866 22.6858C6.69022 22.768 7.12272 22.6311 7.16466 22.3801Z" fill="#6A3906"/>
<path d="M11.0985 14.5541C11.0985 14.5541 10.9449 14.8421 10.9257 14.7461C10.7913 14.1125 10.3497 12.0197 6.79773 12.0581C1.82493 12.0965 1.19133 11.4245 0.730529 10.3877C0.0969293 8.90927 2.40093 7.46927 5.37693 7.48847C6.45213 7.48847 6.98973 7.56527 7.85373 8.08367C8.83293 8.65967 11.5209 11.6549 11.0985 14.5541Z" fill="#CCC08F"/>
<path d="M11.1354 14.4385C11.1354 14.4385 10.8666 14.7265 10.9818 14.7649C11.6154 14.8993 13.9578 15.1297 14.9178 15.5521C16.2618 16.1281 17.4138 17.4337 16.8954 20.0641C16.6266 21.0625 16.9914 21.9841 17.4906 22.1569C18.6042 22.5601 20.985 21.1201 20.3898 17.4721C19.6986 13.2481 15.3402 13.6321 14.3034 13.6321C12.9594 13.6321 11.1354 14.4385 11.1354 14.4385Z" fill="#E2D6B3"/>
<path d="M11.2521 14.2658L11.2137 14.381C11.1945 14.5154 11.0793 14.5154 11.0601 14.4194C10.9449 13.7858 10.3689 11.6738 6.79773 11.7122C1.82493 11.7698 1.19133 11.0978 0.730529 10.0418C0.0969293 8.58258 2.40093 7.14258 5.37693 7.14258C6.45213 7.14258 6.98973 7.21938 7.85373 7.73778C8.83293 8.31378 11.6553 11.3858 11.2521 14.2658Z" fill="#E8E1C1"/>
<path d="M11.2526 14.2465C11.2526 14.2465 11.003 14.4769 11.1374 14.4961C11.771 14.6305 14.171 14.8993 15.1502 15.3217C16.4942 15.8977 17.723 17.4337 17.2046 20.0641C16.9358 21.0625 17.2814 21.8689 17.7806 22.0417C18.6446 22.3489 21.2366 20.8897 20.6222 17.2417C19.931 13.0177 15.5726 13.4017 14.5358 13.4017C13.211 13.4017 11.2526 14.2465 11.2526 14.2465Z" fill="#F4EDD3"/>
</g>
<defs>
<linearGradient id="paint0_linear_216_21" x1="6.34936" y1="10.2214" x2="8.86053" y2="22.0354" gradientUnits="userSpaceOnUse">
<stop stop-color="#FDCA21"/>
<stop offset="0.358" stop-color="#FCC81F"/>
<stop offset="0.555" stop-color="#F7C01A"/>
<stop offset="0.713" stop-color="#F0B212"/>
<stop offset="0.849" stop-color="#E69F05"/>
<stop offset="0.896" stop-color="#E19600"/>
</linearGradient>
<linearGradient id="paint1_linear_216_21" x1="10.62" y1="13.479" x2="10.1333" y2="22.7647" gradientUnits="userSpaceOnUse">
<stop stop-color="#E3B421"/>
<stop offset="0.358" stop-color="#E2B21F"/>
<stop offset="0.555" stop-color="#DDAA1A"/>
<stop offset="0.713" stop-color="#D69C12"/>
<stop offset="0.849" stop-color="#CC8905"/>
<stop offset="0.896" stop-color="#C78000"/>
</linearGradient>
<clipPath id="clip0_216_21">
<rect width="24" height="24" fill="white"/>
</clipPath>
</defs>
</svg>
