<svg width="24" height="26" viewBox="0 0 24 26" fill="none" xmlns="http://www.w3.org/2000/svg">
<g clip-path="url(#clip0_17_66)">
<path d="M2.40837 14.1405C2.04132 13.1693 1.74081 12.1663 1.5004 11.1401C1.2235 9.96794 1.02602 8.76188 0.899379 7.53678C0.80708 6.6333 0.654678 4.95117 0.837131 3.42773C1.03675 1.78158 1.6249 0.313151 3.07378 0.0402018C5.54655 -0.425293 6.7121 3.31348 7.40971 5.54362C7.51918 5.89697 7.61792 6.21012 7.70378 6.44922C7.93775 7.10514 8.17172 7.73568 8.41427 8.34717C8.59458 8.80208 8.77703 9.24007 8.96163 9.66113C9.01744 9.62728 9.07325 9.59766 9.1312 9.56592C9.53689 9.35433 9.97692 9.22314 10.4341 9.16178C11.3442 9.03906 12.2436 9.16813 13.0893 9.46859C14.0274 9.80078 14.8988 10.3467 15.648 10.9941C15.9678 11.2713 16.4314 11.7135 16.8049 12.1769C17.0861 12.526 17.3201 12.8921 17.4145 13.2264C17.4596 13.3851 17.4854 13.5459 17.4875 13.7046C17.4918 13.8696 17.4725 14.0262 17.4317 14.1722C17.3716 14.388 17.2664 14.5848 17.1183 14.752C16.9767 14.9106 16.7942 15.0418 16.5753 15.1328C15.8369 15.4396 15.0298 15.0503 14.212 14.6589C13.8363 14.479 13.4585 14.297 13.1237 14.2039C12.5635 14.0495 12.0075 13.967 11.4623 13.9521C12.2136 14.8831 13.0743 15.702 14.1046 16.4404C15.3668 17.3397 16.8779 18.1183 18.7475 18.8314C19.0072 18.9308 19.2906 19.0345 19.5932 19.1403C19.8873 19.244 20.1857 19.3434 20.4926 19.4429H20.4948C20.6515 19.4937 20.776 19.5317 20.9026 19.5719C22.3021 20.0036 24.1288 20.5664 23.9936 22.2507C23.9442 22.8579 23.7059 23.5265 23.1629 24.1274C22.7314 24.6035 22.1089 25.033 21.2375 25.3441C21.2246 25.3483 21.2117 25.3525 21.1988 25.3568C19.6791 25.7376 18.1916 25.8752 16.7384 25.7715C15.2831 25.6699 13.8642 25.3271 12.4797 24.7559C10.8355 24.0767 9.39093 23.2155 8.12664 22.2083C7.27019 21.527 6.49959 20.778 5.80627 19.9718C5.95438 20.687 6.17762 21.3895 6.38583 22.0327C6.75073 23.1711 7.06412 24.1507 6.88811 24.887C6.87952 24.923 6.86664 24.9653 6.85162 25.0098C6.68419 25.4985 6.2828 25.7821 5.81701 25.9154C5.41561 26.0296 4.95411 26.0233 4.58277 25.9365C4.52267 25.9217 4.45827 25.9048 4.39388 25.8815C3.96887 25.7397 3.56962 25.5493 3.19613 25.3187C1.8374 24.4766 0.873621 23.1055 0.379926 21.5736C-0.111622 20.0501 -0.139526 18.3638 0.37134 16.8805C0.525888 16.4299 0.734099 15.9961 0.991678 15.5898C1.36517 14.9995 1.83955 14.5044 2.40837 14.1405Z" fill="#7A2E00"/>
<path d="M5.40917 22.3353C4.65574 19.9803 3.68338 16.9461 6.28494 14.7816C5.43063 14.4832 4.67721 14.4282 4.02682 14.5573C3.09524 14.7456 2.36114 15.3275 1.85456 16.123C1.63991 16.4595 1.46819 16.8213 1.33726 17.2022C0.897225 18.4801 0.922983 19.9443 1.35014 21.2668C1.77514 22.5828 2.59296 23.755 3.73919 24.4639C4.04185 24.6522 4.37026 24.8066 4.72014 24.9251C4.7459 24.9336 4.77809 24.9421 4.81673 24.9526C5.03567 25.0034 5.30399 25.0077 5.53581 24.9421C5.70324 24.8955 5.84061 24.8109 5.88354 24.6839C5.88569 24.6797 5.88783 24.6691 5.89213 24.6522C6.00375 24.1867 5.72899 23.3298 5.40917 22.3353Z" fill="#FCEB8F"/>
<path d="M5.64313 18.4548C6.49099 19.6058 7.48482 20.6553 8.64179 21.5757C9.84597 22.5342 11.2262 23.3551 12.7996 24.0068C14.1025 24.5464 15.4355 24.8659 16.7985 24.9632C18.1594 25.0584 19.5567 24.9315 20.9863 24.5718C21.7054 24.3115 22.2098 23.9645 22.5532 23.5879C22.6713 23.4567 22.77 23.3213 22.8516 23.1859C19.6662 23.5646 16.6954 22.86 14.1733 21.5672C11.1467 20.0142 8.76199 17.6084 7.42043 15.1984C6.09175 16.0828 5.65815 17.2424 5.64313 18.4548Z" fill="#FEDA00"/>
<path d="M8.29193 10.1732C8.07298 9.68441 7.86048 9.17448 7.64798 8.64128C7.40972 8.04037 7.17145 7.39714 6.9289 6.71582C6.8366 6.4598 6.73786 6.1403 6.62624 5.7806C6.0102 3.81071 4.97773 0.505698 3.22834 0.835776C2.2388 1.02197 1.81379 2.19629 1.65495 3.52295C1.48109 4.97022 1.62705 6.58887 1.7172 7.46061C1.83955 8.64551 2.03059 9.81771 2.30105 10.9624C2.52643 11.923 2.80762 12.8625 3.14462 13.7702C3.36142 13.6877 3.5868 13.62 3.82506 13.5734C4.70942 13.3957 5.72686 13.4803 6.86021 13.9204C6.87738 13.6305 6.90743 13.3385 6.95251 13.0487C7.04266 12.4689 7.19721 11.8955 7.4505 11.3644C7.5385 11.1782 7.6351 11.0068 7.74028 10.846C7.8476 10.681 7.96351 10.5286 8.08801 10.389C8.15026 10.3149 8.22109 10.243 8.29193 10.1732Z" fill="#FDF2B4"/>
<path d="M7.67587 14.0347C8.44861 13.6369 9.26858 13.3618 10.1207 13.2285C11.1639 13.0656 12.2501 13.1185 13.3491 13.4232C13.7612 13.5374 14.169 13.7342 14.5747 13.9289C15.2251 14.242 15.8691 14.5509 16.2597 14.388C16.3563 14.3478 16.4379 14.2886 16.5023 14.2166C16.5667 14.1447 16.6117 14.0579 16.6396 13.9606C16.6611 13.8844 16.6697 13.804 16.6697 13.7215C16.6676 13.6369 16.6525 13.5438 16.6246 13.4465C16.5624 13.2285 16.3821 12.9556 16.1631 12.6805C15.8261 12.2637 15.399 11.8574 15.1049 11.6014C14.4266 11.0132 13.6453 10.5223 12.8146 10.2282C12.0869 9.97005 11.3185 9.86003 10.5457 9.96371C10.183 10.0124 9.83525 10.116 9.51542 10.2811C9.21921 10.4355 8.9466 10.645 8.70619 10.9159C8.6096 11.0259 8.5173 11.1465 8.42929 11.2819C8.34343 11.4131 8.26401 11.5549 8.19103 11.7072C7.97424 12.1579 7.8433 12.6551 7.76388 13.1672C7.7188 13.4549 7.6909 13.7448 7.67587 14.0347Z" fill="#FCEB8F"/>
<path d="M23.1586 22.3268C23.165 22.2782 23.1714 22.2316 23.1736 22.1851C23.2573 21.1462 21.7848 20.6912 20.6579 20.3442C20.4969 20.2956 20.3424 20.2469 20.2372 20.2131C19.9216 20.1115 19.6147 20.0078 19.3206 19.9041C19.0351 19.8047 18.7454 19.6989 18.4513 19.5846C16.5109 18.8441 14.9396 18.0316 13.626 17.0921C12.3681 16.1929 11.3485 15.1772 10.4685 13.9945C10.3933 14.0029 10.3182 14.0135 10.2452 14.0262C9.50253 14.1426 8.78131 14.3817 8.09872 14.7308C9.36087 17.0371 11.6426 19.354 14.5532 20.8457C17.0367 22.1195 19.9753 22.7902 23.1199 22.3311C23.1328 22.3289 23.1457 22.3289 23.1586 22.3268Z" fill="#F5A800"/>
</g>
<defs>
<clipPath id="clip0_17_66">
<rect width="24" height="26" fill="white"/>
</clipPath>
</defs>
</svg>
